<?xml version="1.0" encoding="utf-8"?>
<!-- Generator: Adobe Illustrator 22.0.1, SVG Export Plug-In . SVG Version: 6.00 Build 0)  -->
<svg version="1.2" baseProfile="tiny" id="Ebene_1" xmlns="http://www.w3.org/2000/svg" xmlns:xlink="http://www.w3.org/1999/xlink"
	 x="0px" y="0px" viewBox="0 0 100 100" xml:space="preserve">
<rect x="36.1" y="14.4" fill="#FF0000" width="27.5" height="18.4"/>
<g>
	<path fill="#FF0000" d="M89.1,14.4c6.2,3.3,9.4,8.6,10.5,15.3c0.2,1,0.2,2,0.2,3.1H71.5V14.4H89.1z"/>
	<path fill="#FF0000" d="M28.4,14.4v18.4H0.6c-1.9-5.4,3.2-14.3,10.6-18.4H28.4z"/>
</g>
<rect x="71.7" y="41.2" fill="#FF0000" width="28" height="18"/>
<g>
	<path fill="#FF0000" d="M28.1,41.1v18c-0.8,0.1-1.6,0.2-2.4,0.2c-7.7,0-15.4-0.1-23,0.1c-2.1,0-2.7-0.7-2.6-2.7
		c0.1-5.2,0-10.3,0-15.6H28.1z"/>
</g>
<rect x="36.4" y="67.6" fill="#FF0000" width="27.1" height="17.7"/>
<g>
	<path fill="#FF0000" d="M100,67.6c-0.5,6.8-2.6,12.5-8.1,16.6c-0.8,0.6-1.8,1.3-2.8,1.3c-5.8,0.1-11.5,0.1-17.4,0.1V67.6H100z"/>
	<path fill="#FF0000" d="M28.1,67.8v17.7c-6,0-11.8,0.1-17.7-0.1c-1.3-0.1-2.6-1.2-3.7-2.2c-4.1-3.7-6-8.6-6.6-14
		c-0.1-0.5,0.9-1.7,1.4-1.7c8.6-0.1,17.3,0,25.9,0C27.7,67.5,27.8,67.6,28.1,67.8"/>
</g>
</svg>
